HIERARCHY
ROOT Hips
{
	OFFSET -0.001795 -0.223333 0.028219
	CHANNELS 6 Xposition Yposition Zposition Zrotation Yrotation Xrotation 
	JOINT LeftUpLeg
	{
		OFFSET 0.069520 -0.091406 -0.006815
		CHANNELS 3 Zrotation Yrotation Xrotation
		JOINT LeftLeg
		{
			OFFSET 0.034277 -0.375199 -0.004496
			CHANNELS 3 Zrotation Yrotation Xrotation
			JOINT LeftFoot
			{
				OFFSET -0.013596 -0.397961 -0.043693
				CHANNELS 3 Zrotation Yrotation Xrotation
				JOINT LeftToe
				{
					OFFSET 0.026358 -0.055791 0.119288
					CHANNELS 3 Zrotation Yrotation Xrotation
					End Site
					{
						OFFSET 0.000000 0.000000 0.000000
					}
				}
			}
		}
	}
	JOINT RightUpLeg
	{
		OFFSET -0.067670 -0.090522 -0.004320
		CHANNELS 3 Zrotation Yrotation Xrotation
		JOINT RightLeg
		{
			OFFSET -0.038290 -0.382569 -0.008850
			CHANNELS 3 Zrotation Yrotation Xrotation
			JOINT RightFoot
			{
				OFFSET 0.015774 -0.398415 -0.042312
				CHANNELS 3 Zrotation Yrotation Xrotation
				JOINT RightToe
				{
					OFFSET -0.025372 -0.048144 0.123348
					CHANNELS 3 Zrotation Yrotation Xrotation
					End Site
					{
						OFFSET 0.000000 0.000000 0.000000
					}
				}
			}
		}
	}
	JOINT Spine
	{
		OFFSET -0.002533 0.108963 -0.026696
		CHANNELS 3 Zrotation Yrotation Xrotation
		JOINT Spine1
		{
			OFFSET 0.005487 0.135180 0.001092
			CHANNELS 3 Zrotation Yrotation Xrotation
			JOINT Spine2
			{
				OFFSET 0.001457 0.052922 0.025425
				CHANNELS 3 Zrotation Yrotation Xrotation
				JOINT Neck
				{
					OFFSET -0.002778 0.213870 -0.042857
					CHANNELS 3 Zrotation Yrotation Xrotation
					JOINT Head
					{
						OFFSET 0.005152 0.064970 0.051349
						CHANNELS 3 Zrotation Yrotation Xrotation
						End Site
						{
							OFFSET 0.000000 0.000000 0.000000
						}
					}
				}
				JOINT LeftShoulder
				{
					OFFSET 0.078845 0.121749 -0.034090
					CHANNELS 3 Zrotation Yrotation Xrotation
					JOINT LeftArm
					{
						OFFSET 0.090977 0.030469 -0.008868
						CHANNELS 3 Zrotation Yrotation Xrotation
						JOINT LeftForeArm
						{
							OFFSET 0.259612 -0.012772 -0.027456
							CHANNELS 3 Zrotation Yrotation Xrotation
							JOINT LeftHand
							{
								OFFSET 0.249234 0.008986 -0.001171
								CHANNELS 3 Zrotation Yrotation Xrotation
								End Site
								{
									OFFSET 0.000000 0.000000 0.000000
								}
							}
						}
					}
				}
				JOINT RightShoulder
				{
					OFFSET -0.081759 0.118833 -0.038615
					CHANNELS 3 Zrotation Yrotation Xrotation
					JOINT RightArm
					{
						OFFSET -0.096012 0.032551 -0.009143
						CHANNELS 3 Zrotation Yrotation Xrotation
						JOINT RightForeArm
						{
							OFFSET -0.253742 -0.013329 -0.021401
							CHANNELS 3 Zrotation Yrotation Xrotation
							JOINT RightHand
							{
								OFFSET -0.255298 0.007772 -0.005559
								CHANNELS 3 Zrotation Yrotation Xrotation
								End Site
								{
									OFFSET 0.000000 0.000000 0.000000
								}
							}
						}
					}
				}
			}
		}
	}
}
MOTION
Frames: 7
Frame Time: 0.050000
-0.137720 0.952281 0.511291 -6.472748 50.308206 3.505199 14.911668 -3.220378 -23.197156 -9.046270 -0.929764 16.554889 11.206289 22.572289 10.005411 0.000000 0.000000 0.000000 -1.619059 0.150838 -9.275294 3.914851 -1.073005 0.686713 -5.457331 -10.123782 9.457532 0.000000 0.000000 0.000000 10.026216 -0.528604 -2.139774 -7.407669 3.124301 -14.741910 -1.376159 15.378166 23.212045 9.229865 1.772345 -19.053380 0.000000 0.000000 0.000000 -26.370194 -15.561735 -13.107439 -36.393324 14.782189 -4.413571 -14.674670 -57.359985 3.353665 0.000000 0.000000 0.000000 31.678753 -6.463725 12.204786 48.287743 15.346822 -4.582644 -1.769653 40.472571 4.098937 0.000000 0.000000 0.000000 
-0.131932 0.951931 0.512064 -5.986632 52.057829 3.331317 13.457285 -3.119286 -22.052719 -7.353540 -0.781766 12.898734 9.713182 20.254151 9.493992 0.000000 0.000000 0.000000 -1.910189 0.043544 -7.290547 3.548642 -0.948810 -0.857477 -6.172587 -11.295738 10.241384 0.000000 0.000000 0.000000 9.819233 -0.533822 -1.887890 -7.894056 3.211751 -14.644065 -0.966333 15.882340 23.839357 10.731406 1.333616 -19.855530 0.000000 0.000000 0.000000 -24.668314 -17.321235 -11.979821 -37.800290 13.756222 -4.488320 -10.425596 -57.974208 0.283766 0.000000 0.000000 0.000000 32.802102 -6.778187 13.211626 47.663603 17.069868 -4.451066 -3.630390 39.646210 3.222259 0.000000 0.000000 0.000000 
-0.121948 0.950654 0.511087 -5.605229 53.709578 3.569443 11.777568 -2.954314 -20.820318 -5.611136 -0.567603 8.861184 6.834363 17.081750 10.643882 0.000000 0.000000 0.000000 -2.530996 -0.119726 -6.191354 3.445686 -0.947240 -0.950526 -7.395535 -13.865833 10.283461 0.000000 0.000000 0.000000 8.902172 -0.499216 -1.278291 -7.571905 3.130721 -15.243929 -1.141359 15.367120 24.295096 10.901479 1.754598 -21.299491 0.000000 0.000000 0.000000 -24.308550 -17.527253 -12.008793 -37.364018 12.894420 -4.153536 -7.487998 -57.636730 -1.351009 0.000000 0.000000 0.000000 34.186653 -6.302723 14.783483 46.427792 18.468160 -4.622911 -5.086475 40.078499 2.619466 0.000000 0.000000 0.000000 
-0.107824 0.948139 0.508756 -5.915364 54.947369 3.831727 10.884956 -2.839117 -19.946157 -5.376762 -0.431112 5.807841 5.553641 16.699744 13.332870 0.000000 0.000000 0.000000 -3.220833 -0.275739 -5.970762 3.756370 -1.056941 -0.640524 -8.060494 -15.383883 10.026317 0.000000 0.000000 0.000000 8.701950 -0.438905 -2.222030 -7.834281 3.151228 -15.372737 -0.848790 15.133197 24.452203 10.797827 1.953293 -21.584565 0.000000 0.000000 0.000000 -23.758186 -18.255345 -11.418216 -36.987949 12.092944 -3.917016 -3.483311 -55.652967 -3.402893 0.000000 0.000000 0.000000 36.253736 -6.736675 15.707577 45.584265 19.423113 -5.024969 -7.145695 39.523977 1.801145 0.000000 0.000000 0.000000 
-0.091760 0.946431 0.505468 -5.904460 55.566059 4.151790 10.197253 -2.581661 -18.328106 -5.638307 -0.408074 4.121099 5.803755 16.806550 13.450970 0.000000 0.000000 0.000000 -3.797593 -0.406290 -6.468273 3.925751 -1.213314 1.068274 -8.698611 -17.064534 9.449048 0.000000 0.000000 0.000000 7.740625 -0.332966 -2.895163 -7.599193 3.091533 -15.868572 -0.522601 13.943728 24.976395 10.112560 2.391487 -21.878513 0.000000 0.000000 0.000000 -23.439112 -18.033051 -11.120172 -36.348151 11.251837 -3.672519 -0.620371 -53.514307 -4.541075 0.000000 0.000000 0.000000 36.957037 -6.899475 15.776516 44.974646 19.305609 -5.371246 -6.738373 39.803076 1.922748 0.000000 0.000000 0.000000 
-0.076324 0.946722 0.501898 -5.553289 55.502995 4.357146 9.320226 -2.223071 -16.232207 -5.558146 -0.390324 2.949373 5.096167 15.692270 13.076511 0.000000 0.000000 0.000000 -4.694774 -0.608203 -7.101805 4.144487 -1.416777 2.860573 -8.566082 -16.493823 9.783550 0.000000 0.000000 0.000000 6.481069 -0.243247 -2.665024 -7.085469 3.000656 -16.490353 -0.785587 13.155206 25.089216 9.898442 2.301209 -21.459917 0.000000 0.000000 0.000000 -23.162933 -18.105945 -10.619944 -35.561214 9.997213 -3.274587 3.225373 -50.791200 -5.900929 0.000000 0.000000 0.000000 38.620567 -7.128392 16.284777 44.849190 19.767716 -5.755336 -7.308790 39.772421 1.749463 0.000000 0.000000 0.000000 
-0.062959 0.949304 0.499402 -6.117214 56.142163 4.066928 8.714150 -2.062795 -15.219143 -5.423030 -0.400464 2.305934 4.946896 15.183259 12.598806 0.000000 0.000000 0.000000 -5.241559 -0.766611 -7.409535 4.720715 -1.784228 4.421002 -8.715794 -16.140659 10.867846 0.000000 0.000000 0.000000 5.646184 -0.180714 -3.550924 -6.728445 2.959239 -16.073750 -0.803133 12.200379 24.635207 10.271243 1.855224 -20.919188 0.000000 0.000000 0.000000 -22.659237 -18.092535 -10.129826 -35.596362 8.993663 -3.080390 6.122500 -48.275060 -6.896033 0.000000 0.000000 0.000000 39.008210 -7.188598 16.249588 45.951999 18.858341 -6.091761 -6.670506 40.112045 2.086341 0.000000 0.000000 0.000000 
